<?xml version="1.0" encoding="UTF-8" standalone="no"?>
<!-- Created with Inkscape (http://www.inkscape.org/) -->

<svg
   width="43.682701mm"
   height="19.579166mm"
   viewBox="0 0 43.682701 19.579166"
   version="1.1"
   id="svg1"
   xml:space="preserve"
   xmlns:inkscape="http://www.inkscape.org/namespaces/inkscape"
   xmlns:sodipodi="http://sodipodi.sourceforge.net/DTD/sodipodi-0.dtd"
   xmlns="http://www.w3.org/2000/svg"
   xmlns:svg="http://www.w3.org/2000/svg"><sodipodi:namedview
     id="namedview1"
     pagecolor="#ffffff"
     bordercolor="#000000"
     borderopacity="0.25"
     inkscape:showpageshadow="2"
     inkscape:pageopacity="0.0"
     inkscape:pagecheckerboard="0"
     inkscape:deskcolor="#d1d1d1"
     inkscape:document-units="mm" /><defs
     id="defs1" /><g
     inkscape:label="Calque 1"
     inkscape:groupmode="layer"
     id="layer1"
     transform="translate(-83.067293,-131.95031)"><g
       id="g1"
       inkscape:export-filename="g1.jpg"
       inkscape:export-xdpi="96"
       inkscape:export-ydpi="96"><path
         class="st1"
         d="m 90.237502,137.08323 c 0.05292,-0.0529 0.132292,-0.13229 0.185208,-0.18521 v 0 c 0.105834,-0.13229 0.238125,-0.26458 0.370417,-0.37041 0.02646,-0.0265 0.07937,-0.0794 0.105833,-0.10584 0.02646,-0.0265 0.02646,-0.0265 0.02646,-0.0529 -0.05292,0.0264 -0.07937,0.0794 -0.15875,0.0794 -0.02646,0 -0.02646,-0.0265 -0.02646,-0.0265 l 0.105834,-0.0794 v 0 c -0.02646,0 -0.02646,-0.0265 -0.02646,-0.0265 -0.15875,-0.0265 -0.238125,0.0794 -0.343958,0.15875 -0.02646,0.0265 -0.05292,-0.0265 -0.05292,-0.0265 -0.15875,0.0529 -0.291041,0.21167 -0.449791,0.26458 v -0.0264 c -0.07937,0.0264 -0.132292,0.0529 -0.211667,0.0794 -0.07937,0.0265 -0.185208,0.0265 -0.264583,0 -0.132292,0.0265 -0.264584,0.0529 -0.396875,0.0794 h 0.02646 c -0.07937,0.0264 -0.132292,0.0529 -0.211667,0.0794 v 0 l -0.02646,0.0265 c -0.02646,0.0265 -0.05292,0.0529 -0.07937,0.0794 -0.05292,0.0529 -0.132292,0.0794 -0.185208,0.1323 0,0 -0.02646,0 -0.02646,0 -0.05292,0.0529 -0.105833,0.10583 -0.185208,0.15875 -0.02646,0 -0.02646,0 -0.02646,0 v 0 0 l 0.02646,-0.0529 c 0,-0.0265 0.02646,-0.0265 0.02646,-0.0529 0,-0.0265 0.02646,-0.0529 0.05292,-0.0794 0,0 0,0 0,-0.0265 v 0 c 0,0 0,0 -0.02646,0 0.05292,-0.0529 0.105833,-0.10583 0.185208,-0.13229 v 0 c 0,0 -0.02646,0 -0.02646,-0.0265 0,-0.0265 0.02646,-0.0265 0.02646,-0.0265 0,0 0,0 0,0 v 0 c -0.02646,0.0265 -0.02646,0.0265 -0.05292,0.0265 -0.02646,0.0265 -0.05292,0.0794 -0.07938,0.0794 0,0 -0.02646,0 -0.02646,0 0,0 0,0 -0.02646,0 v 0 0 0 0 c 0,0 0,0 0,0 v 0 c 0,0 0,0 0,-0.0264 v 0 l 0.02646,-0.0265 v -0.0265 c 0,0 0,-0.0265 0.02646,-0.0265 0,0 0,-0.0265 0,-0.0265 0,0 0,0 0,0 0.02646,-0.0265 0.05292,-0.0529 0.07938,-0.0794 v 0 c 0.05292,-0.0265 0.07937,-0.0529 0.132292,-0.0794 l 0.02646,-0.0265 c -0.05292,0.0265 -0.105833,0.0529 -0.185208,0.0794 0,0 -0.02646,0 -0.02646,0 0,0 -0.02646,0 -0.02646,0 v 0 c 0.02646,-0.0265 0.05292,-0.0265 0.07938,-0.0529 0.02646,0 0.02646,0 0.02646,0.0265 0.343958,-0.26458 0.820208,-0.21167 1.243541,-0.34396 l 0.105834,-0.0529 c 0.05292,-0.0265 0.105833,-0.0794 0.15875,-0.10584 0.07937,-0.0529 0.15875,-0.15875 0.185208,-0.23812 0,0 0,-0.0265 0,-0.0265 -0.132292,0.15875 -0.3175,0.26458 -0.47625,0.37042 -0.238125,0.10583 -0.47625,0.10583 -0.740833,0.13229 0.02646,-0.0265 0.02646,-0.0265 0.05292,-0.0265 0,-0.0265 0.02646,-0.0529 0.05292,-0.0529 h 0.02646 c 0,0 0,-0.0265 0.02646,-0.0265 0.02646,0 0.05292,-0.0264 0.05292,-0.0264 -0.02646,-0.0529 -0.105833,0.0264 -0.15875,0 0.02646,-0.0265 0.02646,-0.0529 0.02646,-0.0794 h 0.05292 c 0,-0.0265 0,-0.0265 0.02646,-0.0529 0.15875,-0.10583 0.3175,-0.1852 0.47625,-0.26458 -0.02646,0 -0.05292,0.0265 -0.07937,0.0265 0.02646,0 0,-0.0265 0.02646,-0.0265 0.105833,-0.0265 0.211667,-0.10583 0.343958,-0.15875 -0.05292,0 -0.07937,0.0265 -0.105833,0 0.02646,0 0.02646,-0.0265 0.07937,-0.0265 v -0.0265 c 0,0 0.02646,0 0.02646,0 0,0 -0.02646,0 -0.02646,-0.0265 0.02646,-0.0265 0.05292,-0.0265 0.05292,-0.0265 -0.02646,0 -0.02646,0 -0.02646,-0.0265 0.02646,-0.0529 0.07937,-0.0529 0.15875,-0.0529 -0.02646,-0.0265 -0.05292,0 -0.05292,-0.0265 0,0 0.02646,0 0.02646,0 h -0.02646 c -0.02646,-0.0265 -0.02646,-0.0265 -0.02646,-0.0529 0.07937,-0.0794 0.07937,-0.18521 0.105834,-0.26459 -0.02646,0 -0.02646,0 -0.02646,-0.0265 -0.105833,0.10583 -0.291041,0.15875 -0.449791,0.21166 h -0.05292 c -0.05292,0.0265 -0.132292,0.0265 -0.185208,-0.0265 -0.05292,-0.0265 -0.07937,-0.0529 -0.105834,-0.0794 -0.07937,-0.0529 -0.185208,-0.10583 -0.264583,-0.13229 -0.264583,-0.0794 -0.555625,-0.13229 -0.846667,-0.10584 0.105834,-0.0794 0.264584,-0.0794 0.370417,-0.10583 0.185208,-0.0529 0.370417,-0.13229 0.555625,-0.10583 -0.02646,0 -0.07938,0 -0.105833,0 -0.15875,-0.0265 -0.3175,0.0265 -0.47625,0.0794 -0.105834,0.0265 -0.211667,0.0529 -0.3175,0.0794 -0.07937,0.0265 -0.105834,0.0794 -0.185209,0.0794 v -0.0265 c 0.105834,-0.13229 0.238125,-0.26458 0.423334,-0.26458 0.211666,-0.0265 0.370416,0 0.582083,0.0265 0.132292,0.0265 0.264583,0.0529 0.423333,0.0794 0.05292,0 0.05292,0.0794 0.105834,0.10584 0.07937,0.0265 0.132291,0 0.211666,0.0529 0,-0.0265 -0.02646,-0.0529 0,-0.0529 0.05292,-0.0529 0.105834,0.0265 0.15875,-0.0265 0.07937,-0.0529 -0.07937,-0.15875 -0.132291,-0.23813 0,0 0,-0.0264 0.02646,-0.0264 0.07937,0.0794 0.15875,0.15875 0.264583,0.21166 0.05292,0.0265 0.185209,0.0529 0.15875,-0.0265 -0.05292,-0.10583 -0.15875,-0.21166 -0.238125,-0.34395 v -0.0529 c -0.02646,0 -0.02646,-0.0265 -0.02646,-0.0265 v 0.0265 c -0.05292,-0.0265 -0.02646,-0.0794 -0.05292,-0.10583 -0.02646,-0.0529 -0.02646,-0.1323 -0.02646,-0.18521 -0.02646,-0.0529 -0.02646,-0.13229 -0.05292,-0.18521 -0.02646,-0.18521 -0.07937,-0.34396 -0.105833,-0.52917 -0.02646,-0.21166 0.132292,-0.37041 0.211667,-0.55562 0.07937,-0.13229 0.185208,-0.26459 0.3175,-0.34396 0.05292,-0.13229 0.105833,-0.23813 0.211666,-0.34396 0.105834,-0.10583 0.211667,-0.18521 0.343959,-0.21167 0.105833,-0.0529 0.185208,-0.0794 0.291041,-0.10583 h -7.593541 v 5.82083 h 5.344583 c 0.211667,-0.15875 0.423333,-0.21166 0.714375,-0.37041 0.132292,-0.13229 0.449792,-0.26459 0.555625,-0.37042 z m -1.666875,-0.79375 c -0.02646,0 -0.05292,0 -0.05292,-0.0265 0,-0.0529 0.07938,-0.0529 0.132292,-0.0794 0.02646,-0.0265 0.05292,-0.0265 0.07937,-0.0265 0.02646,0.0265 0.05292,0.0265 0.07937,0.0529 -0.07937,0.0794 -0.15875,0.0529 -0.238125,0.0794 z m -1.693333,-0.23812 c 0,0 0,-0.0265 0,0 0.132291,-0.18521 0.238125,-0.37042 0.343958,-0.58209 0.132292,-0.0794 0.264583,-0.18521 0.370417,-0.3175 0.185208,-0.21166 0.370416,-0.37041 0.608541,-0.47625 0.105834,-0.0265 0.185209,-0.0265 0.291042,0.0265 -0.02646,0.0529 -0.07937,0.0265 -0.132292,0.0794 -0.02646,0 -0.02646,0 -0.02646,-0.0265 0,0 0.02646,-0.0265 0.02646,-0.0265 -0.105833,0.13229 -0.264583,0.18521 -0.343958,0.3175 -0.07937,0.10583 -0.105833,0.23812 -0.238125,0.29104 -0.05292,0.0265 0.02646,-0.0265 -0.02646,-0.0265 -0.370417,0.18521 -0.608542,0.44979 -0.873125,0.74084 z m 0.899583,-0.71438 c 0,0.0265 -0.02646,0.0265 -0.02646,0.0529 0,0.0265 -0.02646,0.0265 -0.05292,0.0529 0,0 -0.02646,0 -0.02646,-0.0265 0,-0.0529 0.05292,-0.0794 0.07937,-0.10584 0.02646,0 0.02646,0 0.02646,0.0265 z m 0.529167,1.64042 c 0,0.0265 -0.02646,0.0265 -0.02646,0.0265 0.02646,0 0.02646,0 0.02646,0.0264 -0.02646,0.0265 -0.05292,0.0529 -0.07937,0.0529 h -0.02646 l -0.05292,0.0529 c -0.02646,0.0265 -0.07937,0 -0.05292,-0.0265 0.02646,-0.0265 0.05292,-0.0529 0.07937,-0.0794 0.02646,-0.0264 0.02646,-0.0264 0.05292,-0.0529 0,0 0.02646,-0.0265 0.02646,-0.0265 0,0 0.05292,0 0.05292,0.0265 z m -0.211667,-0.10584 v 0 c -0.05292,0.0265 -0.07937,0.0529 -0.132292,0.0794 -0.05292,0.0265 -0.105833,0.0529 -0.15875,0.0794 v 0 c 0,0 -0.02646,0 -0.02646,0 -0.05292,0.0265 -0.07937,0.0529 -0.105833,0.0794 l -0.02646,0.0265 v 0 l -0.02646,0.0265 v 0 0 c 0,0 -0.02646,0.0265 -0.02646,0.0265 0,0 0,0.0265 -0.02646,0.0265 0,0 -0.02646,0 -0.02646,0 v 0 h -0.02646 -0.02646 v 0 0 h 0.02646 c -0.02646,0.0265 -0.05292,0.0529 -0.05292,0.0794 v 0 0 0 0 0 0.0265 0 0 c 0,0 0,0 0,0 v 0 c 0,0 0,-0.0265 0,-0.0265 v 0 0 l 0.02646,-0.0529 v 0 l 0.02646,-0.0265 0.02646,-0.0265 v 0 c 0.02646,-0.0265 0.02646,-0.0265 0.02646,-0.0529 v 0 0 c 0,0 0.02646,-0.0265 0.02646,-0.0265 l 0.02646,-0.0265 v 0 0 0 c 0,0 0,-0.0265 0,-0.0265 v 0 0 c 0,0 0,0 0,-0.0265 v 0 0 c 0,0 0,-0.0264 0,-0.0264 v 0 c 0.02646,-0.0265 0.02646,-0.0529 0.05292,-0.0529 h -0.02646 c -0.02646,0 -0.02646,0.0265 -0.05292,0.0265 -0.02646,0 -0.02646,0 -0.02646,-0.0265 0.02646,0 0.02646,-0.0265 0.02646,-0.0265 0.02646,0 0,0 0,0 0.02646,-0.0265 0.02646,-0.0529 0.05292,-0.0529 0.02646,0 0.02646,-0.0264 0.02646,-0.0264 v 0 c 0,0 0.02646,-0.0265 0.02646,-0.0265 v 0 c 0.105833,-0.10584 0.291042,-0.10584 0.423333,-0.15875 0.05292,-0.0265 0.105834,0.0265 0.185209,0 0.02646,0 0.07937,0 0.105833,0.0265 -0.132292,0.0794 -0.211667,0.13229 -0.3175,0.1852 z m 0.238125,-0.74083 c -0.02646,-0.0265 0.02646,0 0.05292,-0.0265 h -0.07937 c -0.02646,0 -0.02646,-0.0265 -0.02646,-0.0265 -0.05292,0 -0.132291,0.0265 -0.185208,0.0529 -0.07937,0.0265 -0.15875,0.0794 -0.238125,0.10583 -0.105833,0.0529 -0.211667,0.15875 -0.343958,0.18521 -0.02646,0 -0.02646,-0.0265 -0.02646,-0.0265 0.02646,-0.0264 0.05292,-0.0529 0.07937,-0.0794 0,0 0,-0.0265 -0.02646,-0.0265 0.07937,-0.13229 0.211667,-0.18521 0.3175,-0.29104 v -0.0265 c 0.02646,-0.0529 0.07937,-0.0794 0.105833,-0.10583 0.02646,-0.0529 0.05292,-0.0794 0.105834,-0.10584 -0.02646,-0.0265 -0.02646,-0.0265 -0.02646,-0.0265 -0.05292,0 -0.07937,0.0265 -0.132291,-0.0265 0.02646,-0.0265 0.05292,-0.0265 0.07937,-0.0529 0,0 -0.02646,0 -0.02646,-0.0265 -0.02646,-0.0265 0.02646,-0.0529 0.05292,-0.0529 0.02646,0 0.105833,-0.0265 0.132292,-0.0529 -0.07937,-0.0265 -0.15875,0.0265 -0.238125,-0.0265 0.05292,-0.13229 0.15875,-0.26458 0.264583,-0.34396 0,0 0.02646,0 0.02646,0.0265 0,0.0529 -0.02646,0.10583 -0.07937,0.10583 0.07937,0.0265 0.185209,0.0265 0.264584,0.0529 -0.02646,0.0265 -0.02646,0.0265 -0.05292,0.0265 0.05292,0.0265 0.132292,0.0265 0.185208,0.0529 -0.02646,0.0265 -0.05292,0 -0.105833,0 0.343958,0.10583 0.687917,0.1852 1.005417,0.39687 -0.238125,0.10583 -0.502709,0.18521 -0.767292,0.23813 -0.02646,0 -0.05292,0 -0.07937,-0.0265 0,0.0265 0,0.0265 -0.02646,0.0265 -0.02646,0 -0.07937,0 -0.105834,0.0265 0,0.0794 -0.05292,0.0794 -0.105833,0.0529 z"
         id="path4"
         style="stroke-width:0.264583" /><path
         class="st2"
         d="m 99.63021,131.95031 h -6.244166 c 0.02646,0 0.05292,0.0265 0.05292,0.0265 l 0.15875,0.0794 c 0.07937,0.0529 0.15875,0.10583 0.211667,0.18521 0.02646,0.0265 0.05292,0.10583 0.02646,0.15875 -0.02646,0.0529 -0.02646,0.15875 -0.07937,0.15875 -0.07937,0.0264 -0.15875,0.0264 -0.238125,0.0264 -0.05292,0 -0.07937,0 -0.132291,-0.0264 0.15875,0.0794 0.3175,0.15875 0.423333,0.29104 0.02646,0.0265 0.05292,0.0265 0.105833,0.0265 0,0 0,0.0264 0,0.0264 0,0.0265 -0.02646,0.0529 -0.02646,0.0794 h 0.02646 c 0.05292,-0.0265 0.05292,-0.13229 0.132292,-0.10583 0.05292,0.0264 0.07937,0.10583 0.05292,0.15875 -0.05292,0.0529 -0.07937,0.0794 -0.132292,0.10583 -0.02646,0.0265 -0.02646,0.0529 0,0.0794 0.02646,0.0529 0.05292,0.0794 0.05292,0.1323 0.02646,0.0794 0.05292,0.15875 0.07937,0.23812 0.05292,0.15875 0.07937,0.3175 0.07937,0.50271 0,0.0794 -0.05292,0.15875 -0.02646,0.23812 0.02646,0.0794 0.07937,0.15875 0.132292,0.23813 0.05292,0.0529 0.07937,0.10583 0.105833,0.18521 0.07937,0.10583 0.185209,0.21166 0.132292,0.34396 -0.02646,0.0794 -0.15875,0.0794 -0.238125,0.10583 -0.05292,0.0529 -0.02646,0.15875 0.02646,0.21167 0.05292,0.10583 -0.07937,0.15875 -0.15875,0.21166 0.02646,0.0265 0.05292,0.0265 0.07937,0.0529 0.02646,0.0529 0.07937,0.0794 0.02646,0.15875 -0.05292,0.0529 -0.185209,0.10583 -0.105834,0.21167 0.05292,0.0794 0.02646,0.15875 -0.02646,0.23812 -0.02646,0.0794 -0.105833,0.15875 -0.211667,0.15875 -0.07937,0.0265 -0.132291,0.0265 -0.211666,0.0265 0.02646,-0.0529 0,-0.0529 -0.02646,-0.0529 -0.185208,-0.0265 -0.370416,-0.0794 -0.555625,-0.0794 -0.05292,0 -0.105833,0.0265 -0.15875,0.0529 -0.05292,0.0265 -0.07937,0.0794 -0.132291,0.10584 v 0 l -0.02646,0.0265 -0.02646,0.0264 v 0.0265 c -0.02646,0.0529 -0.05292,0.0794 -0.07937,0.13229 v 0 c 0,0 0,0 0,0.0265 -0.02646,0.0529 -0.05292,0.13229 -0.07937,0.21167 -0.07937,0.23812 -0.05292,0.47625 0,0.52917 0.02646,0.0265 0.370417,0.13229 0.608542,0.23812 0.07937,0.0265 0.185208,0.0794 0.264583,0.13229 h 6.138333 z"
         id="path5"
         style="stroke-width:0.264583" /><path
         class="st3"
         d="m 93.75646,134.06698 c 0.05292,0.0265 0.105834,0.0265 0.105834,0.0265 -0.02646,0.0794 -0.15875,0.10583 -0.211667,0.21167 h -0.02646 c -0.02646,0.0264 -0.02646,0.0794 -0.05292,0.0794 -0.02646,0 -0.07937,0 -0.105833,0.0265 0.05292,0.0529 0.105833,0.0794 0.15875,0.0794 0.02646,0 0.02646,0.0265 0.02646,0.0529 0,0 0.02646,0 0.02646,-0.0265 0.02646,0 0.02646,0 0.02646,0.0265 v 0.0529 c -0.02646,0.0529 -0.07937,0.0265 -0.132292,0.0265 0.07937,0.0264 0.15875,0.0264 0.238125,0 0.07937,-0.0265 0,-0.1323 0.05292,-0.18521 -0.02646,0 0,-0.0265 -0.02646,-0.0265 0.02646,-0.0794 0.05292,-0.10583 0.05292,-0.10583 0.02646,0 0.05292,-0.0265 0.05292,-0.0265 0,-0.0265 -0.05292,-0.0265 -0.02646,-0.0529 0.07937,-0.0529 0.105834,-0.10583 0.105834,-0.18521 -0.02646,-0.0265 -0.105834,-0.0265 -0.15875,-0.0529 -0.05292,-0.0265 -0.132292,0 -0.185209,0.0265 -0.05292,0 -0.105833,0.0265 -0.15875,0.0529 -0.07937,0.0265 -0.15875,0.0529 -0.211666,0.10583 0.07937,-0.0265 0.15875,-0.0529 0.238125,-0.0794 0.07937,-0.0265 0.132291,-0.0265 0.211666,-0.0265 z"
         id="path6"
         style="stroke-width:0.264583" /><g
         class="st4"
         id="g7"
         transform="matrix(0.26458333,0,0,0.26458333,82.776252,131.39469)">&#10;	<path
   class="st0"
   d="m 7.3,35 h 4.4 L 18,51.6 H 14.4 L 12.8,47.3 H 6.2 L 4.6,51.6 H 1.1 Z m 4.5,9.4 -2.3,-6.2 -2.3,6.2 z"
   id="path7" />&#10;</g><g
         class="st4"
         id="g8"
         transform="matrix(0.26458333,0,0,0.26458333,82.776252,131.39469)">&#10;	<path
   class="st0"
   d="m 32.1,46.6 2.6,2 c -1.5,2 -4,3.4 -7,3.4 -5.2,0 -8.8,-4 -8.8,-8.7 0,-4.7 3.6,-8.7 8.8,-8.7 3,0 5.5,1.3 7,3.4 l -2.6,2 c -0.9,-1.3 -2.4,-2.3 -4.3,-2.3 -3.1,0 -5.3,2.4 -5.3,5.6 0,3.2 2.2,5.6 5.3,5.6 1.8,0 3.3,-0.9 4.3,-2.3 z"
   id="path8" />&#10;</g><g
         class="st4"
         id="g14"
         transform="matrix(0.26458333,0,0,0.26458333,82.776252,131.39469)">&#10;	<path
   class="st0"
   d="m 41.9,35 h 4.4 l 6.2,16.5 H 49 l -1.6,-4.3 h -6.6 l -1.6,4.3 h -3.6 z m 4.5,9.4 -2.3,-6.2 -2.3,6.2 z"
   id="path9" />&#10;	<path
   class="st0"
   d="m 55.3,35 h 6.5 c 5.2,0 8.8,3.8 8.8,8.3 0,4.5 -3.5,8.3 -8.8,8.3 h -6.5 z m 3.4,3.1 v 10.4 h 3.2 c 3.1,0 5.3,-2.3 5.3,-5.2 0,-2.9 -2.2,-5.2 -5.3,-5.2 z"
   id="path10" />&#10;	<path
   class="st0"
   d="m 74.1,35 h 9.6 v 2.9 h -6.3 v 3.8 h 5.3 v 2.9 h -5.3 v 4.1 h 6.3 v 2.9 h -9.6 z m 3.2,-1.4 2.7,-3.2 h 3.4 l -3.1,3.2 z"
   id="path11" />&#10;	<path
   class="st0"
   d="M 87.8,35 H 92 l 4,6.8 4,-6.8 h 4.2 v 16.5 h -3.4 V 39.8 l -3.7,6.1 H 94.7 L 91,39.8 v 11.8 h -3.4 z"
   id="path12" />&#10;	<path
   class="st0"
   d="m 109.1,35 h 3.4 v 16.5 h -3.4 z"
   id="path13" />&#10;	<path
   class="st0"
   d="m 117.3,35 h 9.6 v 2.9 h -6.3 v 3.8 h 5.3 v 2.9 h -5.3 v 4.1 h 6.3 v 2.9 h -9.6 z"
   id="path14" />&#10;</g><g
         class="st4"
         id="g16"
         transform="matrix(0.26458333,0,0,0.26458333,82.776252,131.39469)">&#10;	<path
   class="st0"
   d="m 3.1,59 h 6.5 c 5.2,0 8.8,3.8 8.8,8.3 0,4.5 -3.5,8.3 -8.8,8.3 H 3.1 Z m 3.4,3 V 72.4 H 9.7 C 12.8,72.4 15,70.1 15,67.2 15,64.3 12.7,62 9.7,62 Z"
   id="path15" />&#10;	<path
   class="st0"
   d="m 21.9,59 h 9.6 v 2.9 h -6.3 v 3.8 h 5.3 v 2.9 h -5.3 v 4.1 h 6.3 v 2.9 h -9.6 z"
   id="path16" />&#10;</g><g
         class="st4"
         id="g17"
         transform="matrix(0.26458333,0,0,0.26458333,82.776252,131.39469)">&#10;	<path
   class="st0"
   d="m 40.3,59 h 13.6 v 3 H 48.8 V 75.5 H 45.4 V 62 h -5.1 z"
   id="path17" />&#10;</g><g
         class="st4"
         id="g18"
         transform="matrix(0.26458333,0,0,0.26458333,82.776252,131.39469)">&#10;	<path
   class="st0"
   d="m 72.4,67.2 c 0,4.7 -3.6,8.7 -8.8,8.7 -5.2,0 -8.8,-4 -8.8,-8.7 0,-4.7 3.6,-8.7 8.8,-8.7 5.3,0 8.8,4 8.8,8.7 z m -3.4,0 c 0,-3.2 -2.2,-5.6 -5.3,-5.6 -3.1,0 -5.3,2.4 -5.3,5.6 0,3.2 2.2,5.6 5.3,5.6 3.1,0 5.3,-2.4 5.3,-5.6 z"
   id="path18" />&#10;</g><g
         class="st4"
         id="g19"
         transform="matrix(0.26458333,0,0,0.26458333,82.776252,131.39469)">&#10;	<path
   class="st0"
   d="M 85.6,59 H 89 v 10 c 0,4.4 -2.5,7 -6.7,7 -4.1,0 -6.7,-2.6 -6.7,-7 V 59 H 79 v 10.3 c 0,2.2 1.3,3.5 3.4,3.5 2,0 3.3,-1.3 3.3,-3.5 z"
   id="path19" />&#10;</g><g
         class="st4"
         id="g20"
         transform="matrix(0.26458333,0,0,0.26458333,82.776252,131.39469)">&#10;	<path
   class="st0"
   d="m 93.4,59 h 3.4 v 13.5 h 6.3 v 3 H 93.5 V 59 Z"
   id="path20" />&#10;</g><g
         class="st4"
         id="g21"
         transform="matrix(0.26458333,0,0,0.26458333,82.776252,131.39469)">&#10;	<path
   class="st0"
   d="m 121.7,67.2 c 0,4.7 -3.6,8.7 -8.8,8.7 -5.2,0 -8.8,-4 -8.8,-8.7 0,-4.7 3.6,-8.7 8.8,-8.7 5.3,0 8.8,4 8.8,8.7 z m -3.4,0 c 0,-3.2 -2.2,-5.6 -5.3,-5.6 -3.1,0 -5.3,2.4 -5.3,5.6 0,3.2 2.2,5.6 5.3,5.6 3.1,0 5.3,-2.4 5.3,-5.6 z"
   id="path21" />&#10;</g><g
         class="st4"
         id="g24"
         transform="matrix(0.26458333,0,0,0.26458333,82.776252,131.39469)">&#10;	<path
   class="st0"
   d="m 134.9,59 h 3.4 v 10 c 0,4.4 -2.5,7 -6.7,7 -4.1,0 -6.7,-2.6 -6.7,-7 V 59 h 3.4 v 10.3 c 0,2.2 1.3,3.5 3.4,3.5 2,0 3.3,-1.3 3.3,-3.5 V 59 Z"
   id="path22" />&#10;	<path
   class="st0"
   d="m 143.6,71 c 1,1.3 2.3,2 3.6,2 1.3,0 2.1,-0.7 2.1,-1.9 0,-2.9 -7.6,-2.3 -7.6,-7.8 0,-2.6 2.2,-4.8 5.3,-4.8 2.5,0 4.4,1.1 5.8,2.8 l -2.5,2.2 c -1,-1.3 -2,-2 -3.3,-2 -1.2,0 -1.9,0.8 -1.9,1.7 0,2.9 7.6,2.3 7.6,7.9 -0.1,3.1 -2.5,5 -5.5,5 -2.8,0 -4.7,-1 -6.1,-2.8 z"
   id="path23" />&#10;	<path
   class="st0"
   d="m 156.5,59 h 9.7 v 2.9 h -6.3 v 3.8 h 5.3 v 2.9 h -5.3 v 4.1 h 6.3 v 2.9 h -9.6 z"
   id="path24" />&#10;</g></g></g><style
     type="text/css"
     id="style1">&#10;	.st0{fill:#231F20;}&#10;	.st1{fill:#243B7D;}&#10;	.st2{fill:#ED1C24;}&#10;	.st3{fill:#939598;}&#10;	.st4{enable-background:new    ;}&#10;</style></svg>
